<svg width="23" height="22" viewBox="0 0 23 22" fill="none" xmlns="http://www.w3.org/2000/svg">
<g id="wrapper">
<path id="Union" fill-rule="evenodd" clip-rule="evenodd" d="M8.36881 2.28559C10.2391 1.61277 12.2763 1.56027 14.1788 2.13588C16.0812 2.71149 17.7477 3.88459 18.9312 5.48139C20.1148 7.0782 20.7526 9.01377 20.75 11.0014L19.75 11.0001H20.75V11.0014V12.3751C20.75 13.2481 20.4032 14.0854 19.7859 14.7027C19.1686 15.32 18.3313 15.6668 17.4583 15.6668C16.5853 15.6668 15.7481 15.32 15.1308 14.7027C15.0071 14.579 14.8943 14.4466 14.793 14.3068C15.3273 13.7747 15.7333 13.114 15.9608 12.3751C16.0946 11.9404 16.1667 11.4787 16.1667 11.0001L16.1667 12.3751C16.1667 12.7177 16.3028 13.0462 16.545 13.2884C16.7872 13.5307 17.1158 13.6668 17.4583 13.6668C17.8009 13.6668 18.1294 13.5307 18.3717 13.2884C18.6139 13.0462 18.75 12.7177 18.75 12.3751V11.0001V10.9988C18.752 9.44096 18.2521 7.92388 17.3245 6.67233C16.3968 5.42078 15.0907 4.50133 13.5996 4.05018C12.1085 3.59902 10.5117 3.64017 9.04582 4.16752C7.57993 4.69486 6.32289 5.68037 5.46092 6.97803C4.59894 8.27569 4.17788 9.8165 4.26011 11.3722C4.34234 12.9279 4.92349 14.4157 5.91746 15.6153C6.91144 16.8148 8.26537 17.6623 9.77868 18.0322C11.292 18.4021 12.8842 18.2747 14.3194 17.6688C14.8283 17.454 15.4148 17.6924 15.6296 18.2012C15.8444 18.71 15.606 19.2966 15.0972 19.5114C13.2661 20.2843 11.2346 20.4469 9.30383 19.975C7.37305 19.5031 5.64562 18.4218 4.37745 16.8913C3.10928 15.3609 2.36781 13.4626 2.2629 11.4778C2.15799 9.49291 2.6952 7.52706 3.79496 5.87142C4.89472 4.21578 6.49853 2.95841 8.36881 2.28559ZM14.1667 11.0001L14.1667 12.3751C14.1667 13.0733 14.3885 13.7485 14.793 14.3068C13.9491 15.1473 12.7852 15.6668 11.5 15.6668C8.92267 15.6668 6.83333 13.5775 6.83333 11.0001C6.83333 8.4228 8.92267 6.33347 11.5 6.33347C14.0773 6.33347 16.1667 8.4228 16.1667 11.0001H14.1667ZM14.1667 11.0001C14.1667 9.52737 12.9728 8.33347 11.5 8.33347C10.0272 8.33347 8.83333 9.52737 8.83333 11.0001C8.83333 12.4729 10.0272 13.6668 11.5 13.6668C12.9728 13.6668 14.1667 12.4729 14.1667 11.0001Z" fill="black" fill-opacity="0.85"/>
</g>
</svg>
