<svg width="23" height="22" viewBox="0 0 23 22" fill="none" xmlns="http://www.w3.org/2000/svg">
<g id="wrapper">
<path id="Union" fill-rule="evenodd" clip-rule="evenodd" d="M8.36881 2.28534C10.2391 1.61252 12.2763 1.56003 14.1788 2.13564C16.0812 2.71125 17.7477 3.88434 18.9312 5.48115C20.1148 7.07795 20.7526 9.01353 20.75 11.0011L19.75 10.9999H20.75V11.0011V12.3749C20.75 13.2479 20.4032 14.0851 19.7859 14.7024C19.1686 15.3197 18.3313 15.6665 17.4583 15.6665C16.5853 15.6665 15.7481 15.3197 15.1308 14.7024C15.0071 14.5788 14.8943 14.4463 14.793 14.3065C15.3273 13.7745 15.7333 13.1138 15.9608 12.3749C16.0946 11.9402 16.1667 11.4785 16.1667 10.9999L16.1667 12.3749C16.1667 12.7174 16.3028 13.046 16.545 13.2882C16.7872 13.5304 17.1158 13.6665 17.4583 13.6665C17.8009 13.6665 18.1294 13.5304 18.3717 13.2882C18.6139 13.046 18.75 12.7174 18.75 12.3749V10.9999V10.9986C18.752 9.44071 18.2521 7.92364 17.3245 6.67209C16.3968 5.42054 15.0907 4.50109 13.5996 4.04993C12.1085 3.59878 10.5117 3.63992 9.04582 4.16727C7.57993 4.69462 6.32289 5.68012 5.46092 6.97779C4.59894 8.27545 4.17788 9.81625 4.26011 11.3719C4.34234 12.9276 4.92349 14.4155 5.91746 15.615C6.91144 16.8146 8.26537 17.6621 9.77868 18.032C11.292 18.4018 12.8842 18.2744 14.3194 17.6686C14.8283 17.4538 15.4148 17.6922 15.6296 18.201C15.8444 18.7098 15.606 19.2964 15.0972 19.5111C13.2661 20.2841 11.2346 20.4467 9.30383 19.9748C7.37305 19.5029 5.64562 18.4216 4.37745 16.8911C3.10928 15.3606 2.36781 13.4624 2.2629 11.4775C2.15799 9.49266 2.6952 7.52681 3.79496 5.87117C4.89472 4.21553 6.49853 2.95817 8.36881 2.28534ZM14.1667 10.9999L14.1667 12.3749C14.1667 13.073 14.3885 13.7483 14.793 14.3065C13.9491 15.147 12.7852 15.6666 11.5 15.6666C8.92267 15.6666 6.83333 13.5772 6.83333 10.9999C6.83333 8.42256 8.92267 6.33322 11.5 6.33322C14.0773 6.33322 16.1667 8.42256 16.1667 10.9999H14.1667ZM14.1667 10.9999C14.1667 9.52713 12.9728 8.33322 11.5 8.33322C10.0272 8.33322 8.83333 9.52713 8.83333 10.9999C8.83333 12.4726 10.0272 13.6666 11.5 13.6666C12.9728 13.6666 14.1667 12.4726 14.1667 10.9999Z" fill="black" fill-opacity="0.85"/>
</g>
</svg>
