<svg width="24" height="24" viewBox="0 0 24 24" fill="none" xmlns="http://www.w3.org/2000/svg">
<g id="g5891">
<path id="background" fill-rule="evenodd" clip-rule="evenodd" d="M24 3C24 1.34423 22.6558 0 21 0H3C1.34423 0 0 1.34423 0 3V21C0 22.6558 1.34423 24 3 24H21C22.6558 24 24 22.6558 24 21V3Z" fill="#9DA3AF"/>
<g id="shapes">
<path id="rect11" d="M6.88185 8.375H2.86185V20.467H6.88185V8.375Z" fill="white"/>
<path id="path13-0" d="M4.899 2.54443C3.52364 2.54443 2.625 3.44865 2.625 4.63379C2.625 5.79404 3.49631 6.7232 4.8458 6.7232H4.87177C6.27347 6.7232 7.14595 5.79404 7.14595 4.63379C7.11994 3.44865 6.27356 2.54443 4.899 2.54443Z" fill="white"/>
<path id="path15" d="M16.7474 8.09082C14.6151 8.09082 13.66 9.26349 13.1251 10.0872V8.37516H9.10614C9.15944 9.5094 9.10614 20.4671 9.10614 20.4671H13.1251V13.7141C13.1251 13.3526 13.151 12.9913 13.2576 12.7329C13.5476 12.0111 14.2094 11.2633 15.3197 11.2633C16.7734 11.2633 17.3558 12.3726 17.3558 13.9974V20.4671H21.3749V13.5329C21.3749 9.81863 19.3919 8.09082 16.7474 8.09082Z" fill="white"/>
</g>
</g>
</svg>
