<svg width="18" height="19" viewBox="0 0 18 19" fill="none" xmlns="http://www.w3.org/2000/svg">
<g id="Group">
<path id="Vector" d="M14.6169 13.228C15.7824 13.7233 16.4892 14.373 16.4892 15.0854C16.4892 16.6366 13.1359 17.8939 8.99986 17.8939C4.86386 17.8939 1.5105 16.6366 1.5105 15.0854C1.5105 14.3739 2.21731 13.7223 3.38284 13.228" stroke="#626262" stroke-width="1.40426" stroke-linecap="round" stroke-linejoin="round"/>
<path id="Vector_2" fill-rule="evenodd" clip-rule="evenodd" d="M8.30918 14.7809L9.00008 14.149L8.30918 14.7809ZM9.69097 14.7809L9.69565 14.7762L9.70689 14.7631L9.74901 14.7163L9.90442 14.5422C10.6823 13.6562 11.4159 12.7324 12.1025 11.7739C12.7036 10.9314 13.3196 9.97649 13.7886 9.02815C14.2473 8.10134 14.6171 7.08185 14.6171 6.13913C14.6171 2.79419 12.1662 0.106445 9.00008 0.106445C5.83395 0.106445 3.38306 2.79325 3.38306 6.13913C3.38306 7.08185 3.75284 8.10134 4.21157 9.02815C4.68059 9.97649 5.29753 10.9314 5.89667 11.7739C6.62917 12.7955 7.41509 13.7776 8.25114 14.7163L8.29327 14.7631L8.3045 14.7762L8.30918 14.7809C8.3969 14.8768 8.50363 14.9535 8.62258 15.0059C8.74153 15.0583 8.87009 15.0854 9.00008 15.0854C9.13006 15.0854 9.25863 15.0583 9.37758 15.0059C9.49653 14.9535 9.60326 14.8768 9.69097 14.7809ZM9.00008 14.149L9.69097 14.78L9.00008 14.149ZM9.00008 3.85113C8.5035 3.85113 8.02727 4.04839 7.67613 4.39952C7.325 4.75065 7.12774 5.22689 7.12774 5.72347C7.12774 6.22004 7.325 6.69628 7.67613 7.04741C8.02727 7.39854 8.5035 7.59581 9.00008 7.59581C9.49665 7.59581 9.97289 7.39854 10.324 7.04741C10.6752 6.69628 10.8724 6.22004 10.8724 5.72347C10.8724 5.22689 10.6752 4.75065 10.324 4.39952C9.97289 4.04839 9.49665 3.85113 9.00008 3.85113Z" fill="#626262"/>
</g>
</svg>
