<svg width="20" height="20" viewBox="0 0 20 20" fill="none" xmlns="http://www.w3.org/2000/svg">
<g id="contract.icon">
<path id="Vector" d="M12.706 13.425L14.106 12.025C14.2946 11.8388 14.5332 11.7113 14.7928 11.6581C15.0524 11.6048 15.3219 11.6281 15.5685 11.725L17.2748 12.4063C17.524 12.5074 17.7378 12.6801 17.889 12.9026C18.0403 13.125 18.1223 13.3873 18.1248 13.6563V16.7813C18.1233 16.9643 18.0849 17.1451 18.0117 17.3128C17.9385 17.4805 17.8322 17.6317 17.699 17.7573C17.5659 17.8828 17.4087 17.9801 17.237 18.0433C17.0653 18.1065 16.8825 18.1343 16.6998 18.125C4.74353 17.3813 2.33103 7.25627 1.87478 3.38128C1.8536 3.19099 1.87295 2.99837 1.93156 2.81609C1.99017 2.63382 2.0867 2.46602 2.21482 2.32374C2.34294 2.18145 2.49973 2.0679 2.67488 1.99057C2.85003 1.91323 3.03957 1.87385 3.23103 1.87503H6.24978C6.51916 1.87582 6.78214 1.95719 7.0049 2.10867C7.22766 2.26015 7.40001 2.4748 7.49978 2.72503L8.18103 4.43128C8.28119 4.67694 8.30674 4.94668 8.2545 5.20678C8.20225 5.46689 8.07453 5.70584 7.88728 5.89378L6.48728 7.29378C6.48728 7.29378 7.29353 12.75 12.706 13.425Z" fill="#626262"/>
</g>
</svg>
