<svg width="48" height="34" viewBox="0 0 48 34" fill="none" xmlns="http://www.w3.org/2000/svg">
<g id="quote-svgrepo-com 2">
<g id="Group">
<path id="Vector" d="M10.6691 30.8783C14.9351 30.8783 18.3933 27.2796 18.3933 22.8403C18.3933 18.401 14.9351 14.8022 10.6691 14.8022C6.40317 14.8022 2.94492 18.401 2.94492 22.8403C2.94492 27.2796 6.40317 30.8783 10.6691 30.8783Z" fill="#FADB14"/>
<path id="Vector_2" d="M10.6691 32.3398C5.63575 32.3398 1.54052 28.0782 1.54052 22.8403C1.54052 17.6024 5.63575 13.3408 10.6691 13.3408C15.7025 13.3408 19.7977 17.6024 19.7977 22.8403C19.7977 28.0782 15.7025 32.3398 10.6691 32.3398ZM10.6691 16.2637C7.18481 16.2637 4.34932 19.2144 4.34932 22.8403C4.34932 26.4662 7.18481 29.4169 10.6691 29.4169C14.1534 29.4169 16.9889 26.4662 16.9889 22.8403C16.9889 19.2144 14.1534 16.2637 10.6691 16.2637Z" fill="#FADB14"/>
</g>
<g id="Group_2">
<path id="Vector_3" d="M34.5439 30.8783C38.8099 30.8783 42.2682 27.2796 42.2682 22.8403C42.2682 18.401 38.8099 14.8022 34.5439 14.8022C30.278 14.8022 26.8197 18.401 26.8197 22.8403C26.8197 27.2796 30.278 30.8783 34.5439 30.8783Z" fill="#FADB14"/>
<path id="Vector_4" d="M34.5439 32.3398C29.5106 32.3398 25.4153 28.0782 25.4153 22.8403C25.4153 17.6024 29.5106 13.3408 34.5439 13.3408C39.5773 13.3408 43.6725 17.6024 43.6725 22.8403C43.6725 28.0782 39.5773 32.3398 34.5439 32.3398ZM34.5439 16.2637C31.0596 16.2637 28.2241 19.2144 28.2241 22.8403C28.2241 26.4662 31.0596 29.4169 34.5439 29.4169C38.0283 29.4169 40.8637 26.4662 40.8637 22.8403C40.8637 19.2144 38.0283 16.2637 34.5439 16.2637Z" fill="#FADB14"/>
</g>
<path id="Vector_5" d="M2.94492 23.5709C2.16829 23.5709 1.54052 22.9176 1.54052 22.1094C1.54052 10.8269 10.3602 1.64893 21.2021 1.64893C21.9788 1.64893 22.6065 2.3022 22.6065 3.11039C22.6065 3.91858 21.9788 4.57185 21.2021 4.57185C11.9092 4.57185 4.34932 12.4389 4.34932 22.1094C4.34932 22.9176 3.72156 23.5709 2.94492 23.5709Z" fill="#FADB14"/>
<path id="Vector_6" d="M26.8197 23.5709C26.0431 23.5709 25.4153 22.9176 25.4153 22.1094C25.4153 10.8269 34.235 1.64893 45.077 1.64893C45.8536 1.64893 46.4814 2.3022 46.4814 3.11039C46.4814 3.91858 45.8536 4.57185 45.077 4.57185C35.784 4.57185 28.2241 12.4389 28.2241 22.1094C28.2241 22.9176 27.5964 23.5709 26.8197 23.5709Z" fill="#FADB14"/>
</g>
</svg>
