<svg width="16" height="16" viewBox="0 0 16 16" fill="none" xmlns="http://www.w3.org/2000/svg">
<g id="wrapper">
<path id="Union" fill-rule="evenodd" clip-rule="evenodd" d="M14.7071 1.29304C14.9813 1.5672 15.0722 1.97512 14.9406 2.33979L10.6073 14.3398C10.5979 14.3659 10.5874 14.3915 10.5758 14.4167C10.4668 14.6547 10.2917 14.8563 10.0715 14.9976C9.85127 15.1389 9.59508 15.2141 9.33338 15.2141C9.07168 15.2141 8.81549 15.1389 8.59525 14.9976C8.38128 14.8603 8.20998 14.6661 8.10043 14.437L5.92131 10.0788L1.5632 7.89976C1.3341 7.79021 1.13992 7.61891 1.00261 7.40494C0.861267 7.1847 0.786133 6.92851 0.786133 6.66682C0.786133 6.40512 0.861267 6.14893 1.00261 5.92869C1.14394 5.70845 1.34555 5.53341 1.58345 5.42439C1.60865 5.41284 1.63433 5.40235 1.6604 5.39293L13.6604 1.0596C14.025 0.92791 14.4329 1.01889 14.7071 1.29304ZM7.88343 9.53093L9.23864 12.2413L11.5365 5.87782L7.88343 9.53093ZM10.1223 4.46364L3.75889 6.76155L6.46922 8.11672L10.1223 4.46364Z" fill="black" fill-opacity="0.85"/>
</g>
</svg>
