<svg width="17" height="16" viewBox="0 0 17 16" fill="none" xmlns="http://www.w3.org/2000/svg">
<g id="wrapper">
<path id="Union" fill-rule="evenodd" clip-rule="evenodd" d="M15.2071 1.29292C15.4813 1.56708 15.5722 1.975 15.4406 2.33967L11.1073 14.3397C11.0979 14.3657 11.0874 14.3914 11.0758 14.4166C10.9668 14.6545 10.7917 14.8561 10.5715 14.9975C10.3513 15.1388 10.0951 15.2139 9.83338 15.2139C9.57168 15.2139 9.31549 15.1388 9.09525 14.9975C8.88128 14.8602 8.70998 14.666 8.60043 14.4369L6.42131 10.0787L2.0632 7.89964C1.8341 7.79008 1.63992 7.61879 1.50261 7.40482C1.36127 7.18458 1.28613 6.92839 1.28613 6.66669C1.28613 6.405 1.36127 6.14881 1.50261 5.92857C1.64394 5.70832 1.84555 5.53329 2.08345 5.42427C2.10865 5.41272 2.13433 5.40222 2.1604 5.39281L14.1604 1.05947C14.525 0.927788 14.9329 1.01876 15.2071 1.29292ZM8.38343 9.53081L9.73864 12.2412L12.0365 5.8777L8.38343 9.53081ZM10.6223 4.46352L4.25889 6.76142L6.96922 8.1166L10.6223 4.46352Z" fill="white"/>
</g>
</svg>
