<svg width="24" height="24" viewBox="0 0 24 24" fill="none" xmlns="http://www.w3.org/2000/svg">
<g id="Group">
<path id="Dark_Blue" d="M21 24H3C1.344 24 0 22.656 0 21V3C0 1.344 1.344 0 3 0H21C22.656 0 24 1.344 24 3V21C24 22.656 22.656 24 21 24Z" fill="#9DA3AF"/>
<path id="Logo__x2014__FIXED" d="M9.21601 18.0958C14.874 18.0958 17.97 13.4038 17.97 9.34181C17.97 9.20981 17.97 9.07781 17.964 8.94581C18.564 8.51381 19.086 7.96781 19.5 7.34981C18.948 7.59581 18.354 7.75781 17.73 7.83581C18.366 7.45781 18.852 6.85181 19.086 6.13181C18.492 6.48581 17.832 6.73781 17.13 6.87581C16.566 6.27581 15.768 5.90381 14.886 5.90381C13.188 5.90381 11.808 7.28381 11.808 8.98181C11.808 9.22181 11.838 9.45581 11.886 9.68381C9.33001 9.55781 7.06201 8.32781 5.54401 6.46781C5.28001 6.92381 5.13001 7.45181 5.13001 8.01581C5.13001 9.08381 5.67601 10.0258 6.49801 10.5778C5.99401 10.5598 5.52001 10.4218 5.10601 10.1938V10.2358C5.10601 11.7238 6.16801 12.9718 7.57201 13.2538C7.31401 13.3258 7.04401 13.3618 6.76201 13.3618C6.56401 13.3618 6.37201 13.3438 6.18601 13.3078C6.57601 14.5318 7.71601 15.4198 9.06001 15.4438C8.00401 16.2718 6.67801 16.7638 5.23801 16.7638C4.99201 16.7638 4.74601 16.7518 4.50601 16.7218C5.86201 17.5858 7.48201 18.0958 9.21601 18.0958Z" fill="white"/>
</g>
</svg>
