<svg width="22" height="22" viewBox="0 0 22 22" fill="none" xmlns="http://www.w3.org/2000/svg">
<g id="wrapper">
<path id="Union" fill-rule="evenodd" clip-rule="evenodd" d="M11 3.75012C9.52724 3.75012 8.33333 4.94403 8.33333 6.41679C8.33333 7.88955 9.52724 9.08346 11 9.08346C12.4728 9.08346 13.6667 7.88955 13.6667 6.41679C13.6667 4.94403 12.4728 3.75012 11 3.75012ZM6.33333 6.41679C6.33333 3.83946 8.42267 1.75012 11 1.75012C13.5773 1.75012 15.6667 3.83946 15.6667 6.41679C15.6667 8.99412 13.5773 11.0835 11 11.0835C8.42267 11.0835 6.33333 8.99412 6.33333 6.41679ZM9.16667 14.7501C8.45942 14.7501 7.78115 15.0311 7.28105 15.5312C6.78095 16.0313 6.5 16.7095 6.5 17.4168V19.2501C6.5 19.8024 6.05228 20.2501 5.5 20.2501C4.94772 20.2501 4.5 19.8024 4.5 19.2501V17.4168C4.5 16.1791 4.99167 14.9921 5.86683 14.117C6.742 13.2418 7.92899 12.7501 9.16667 12.7501H12.8333C14.071 12.7501 15.258 13.2418 16.1332 14.117C17.0083 14.9921 17.5 16.1791 17.5 17.4168V19.2501C17.5 19.8024 17.0523 20.2501 16.5 20.2501C15.9477 20.2501 15.5 19.8024 15.5 19.2501V17.4168C15.5 16.7095 15.219 16.0313 14.719 15.5312C14.2189 15.0311 13.5406 14.7501 12.8333 14.7501H9.16667Z" fill="black" fill-opacity="0.85"/>
</g>
</svg>
