<svg width="23" height="22" viewBox="0 0 23 22" fill="none" xmlns="http://www.w3.org/2000/svg">
<g id="wrapper">
<path id="Union" fill-rule="evenodd" clip-rule="evenodd" d="M11.5 3.75C10.0272 3.75 8.83333 4.94391 8.83333 6.41667C8.83333 7.88943 10.0272 9.08333 11.5 9.08333C12.9728 9.08333 14.1667 7.88943 14.1667 6.41667C14.1667 4.94391 12.9728 3.75 11.5 3.75ZM6.83333 6.41667C6.83333 3.83934 8.92267 1.75 11.5 1.75C14.0773 1.75 16.1667 3.83934 16.1667 6.41667C16.1667 8.994 14.0773 11.0833 11.5 11.0833C8.92267 11.0833 6.83333 8.994 6.83333 6.41667ZM9.66667 14.75C8.95942 14.75 8.28115 15.031 7.78105 15.531C7.28095 16.0311 7 16.7094 7 17.4167V19.25C7 19.8023 6.55228 20.25 6 20.25C5.44772 20.25 5 19.8023 5 19.25V17.4167C5 16.179 5.49167 14.992 6.36683 14.1168C7.242 13.2417 8.42899 12.75 9.66667 12.75H13.3333C14.571 12.75 15.758 13.2417 16.6332 14.1168C17.5083 14.992 18 16.179 18 17.4167V19.25C18 19.8023 17.5523 20.25 17 20.25C16.4477 20.25 16 19.8023 16 19.25V17.4167C16 16.7094 15.719 16.0311 15.219 15.531C14.7189 15.031 14.0406 14.75 13.3333 14.75H9.66667Z" fill="black" fill-opacity="0.85"/>
</g>
</svg>
