<svg width="24" height="24" viewBox="0 0 24 24" fill="none" xmlns="http://www.w3.org/2000/svg">
<g id="WhatsApp-Logo-Icon">
<path id="Vector" d="M5.448 0C4.92 0.024 4.224 0.072 3.912 0.144C3.432 0.24 2.976 0.384 2.616 0.576C2.16 0.792 1.776 1.08 1.44 1.416C1.08 1.776 0.792 2.16 0.576 2.616C0.384 2.976 0.24 3.432 0.144 3.912C0.072 4.224 0.024 4.92 0.024 5.448C0 5.664 0 5.952 0 6.096V17.904V18.552C0.024 19.08 0.072 19.776 0.144 20.088C0.24 20.568 0.384 21.024 0.576 21.384C0.792 21.84 1.08 22.224 1.416 22.56C1.776 22.92 2.16 23.208 2.616 23.424C2.976 23.616 3.432 23.76 3.912 23.856C4.224 23.928 4.92 23.976 5.448 23.976C5.664 24 5.952 24 6.096 24H17.904H18.552C19.08 23.976 19.776 23.928 20.088 23.856C20.568 23.76 21.024 23.616 21.384 23.424C21.84 23.208 22.224 22.92 22.56 22.584C22.92 22.224 23.208 21.84 23.424 21.384C23.616 21.024 23.76 20.568 23.856 20.088C23.928 19.776 23.976 19.08 23.976 18.552C24 18.336 24 18.048 24 17.904V5.448C23.976 4.92 23.928 4.224 23.856 3.912C23.76 3.432 23.616 2.976 23.424 2.616C23.208 2.16 22.92 1.776 22.584 1.44C22.224 1.08 21.84 0.792 21.384 0.576C21.024 0.384 20.568 0.24 20.088 0.144C19.776 0.072 19.08 0.024 18.552 0.024C18.336 -2.79397e-09 18.048 0 17.904 0H5.448Z" fill="#9DA3AF"/>
<path id="Vector_2" fill-rule="evenodd" clip-rule="evenodd" d="M16.1604 13.5795C15.9466 13.4725 14.8957 12.9555 14.6997 12.8842C14.5037 12.8129 14.3613 12.7772 14.2188 12.9912C14.0762 13.2051 13.6666 13.6864 13.5419 13.8291C13.4172 13.9717 13.2925 13.9895 13.0788 13.8825C12.865 13.7756 12.1763 13.5499 11.3598 12.8219C10.7244 12.2553 10.2953 11.5554 10.1706 11.3415C10.0459 11.1276 10.1574 11.0119 10.2644 10.9054C10.3605 10.8097 10.4781 10.6558 10.585 10.531C10.6919 10.4063 10.7275 10.3171 10.7987 10.1745C10.87 10.0319 10.8344 9.90708 10.7809 9.80011C10.7275 9.69314 10.3 8.64136 10.1219 8.21349C9.94838 7.79682 9.77213 7.85321 9.64093 7.84664C9.51638 7.84046 9.37374 7.83914 9.23124 7.83914C9.0887 7.83914 8.85718 7.89263 8.66119 8.10652C8.46526 8.32046 7.91307 8.83749 7.91307 9.88927C7.91307 10.9411 8.67901 11.9572 8.78588 12.0998C8.8928 12.2425 10.2932 14.4009 12.4375 15.3265C12.9475 15.5467 13.3457 15.6781 13.6561 15.7767C14.1682 15.9393 14.6342 15.9164 15.0025 15.8613C15.4132 15.8 16.2672 15.3443 16.4454 14.8452C16.6235 14.346 16.6235 13.9182 16.57 13.8291C16.5166 13.7399 16.3741 13.6864 16.1604 13.5795ZM12.26 18.9032H12.2572C10.9812 18.9027 9.7298 18.5601 8.63809 17.9124L8.37845 17.7583L5.68721 18.4641L6.40557 15.841L6.23645 15.5721C5.5247 14.4403 5.1488 13.1322 5.14932 11.7891C5.15087 7.86985 8.34071 4.68122 12.2629 4.68122C14.1621 4.68197 15.9474 5.42236 17.2899 6.76594C18.6324 8.10952 19.3713 9.8955 19.3706 11.7948C19.369 15.7144 16.1792 18.9032 12.26 18.9032ZM18.3117 5.74496C16.6965 4.12843 14.5485 3.23775 12.26 3.23682C7.54458 3.23682 3.70679 7.07311 3.70491 11.7886C3.7043 13.2959 4.0982 14.7673 4.84684 16.0641L3.63315 20.4959L8.1683 19.3067C9.41785 19.988 10.8247 20.347 12.2566 20.3476H12.2601C16.975 20.3476 20.8131 16.5108 20.815 11.7954C20.8159 9.51019 19.9269 7.36149 18.3117 5.74496Z" fill="white"/>
</g>
</svg>
